<svg xmlns="http://www.w3.org/2000/svg" xmlns:xlink="http://www.w3.org/1999/xlink" style="margin:auto;background:#7e71d6;display:block;z-index:1;position:relative" width="1600" height="795" preserveAspectRatio="xMidYMid" viewBox="0 0 1600 795">
<g transform="translate(800,397.5) scale(1,1) translate(-800,-397.5)"><g transform="translate(1268.4400457305987,292.79124412965956) scale(100)" opacity="0.9">
  <path d="M2.7840000000000007 0 C2.7840000000000007 4.08 7.858511297646498 -1.1610582176455981 6.297162893596931 2.608370275000452 S4.853580946064463 -0.9164103884177657 1.9685852788233489 1.9685852788233487 S6.377798767646503 4.735814489547364 2.6083702750004525 6.297162893596931 S4.08 2.7840000000000003 1.704708344413116e-16 2.7840000000000007 S1.1610582176455981 7.858511297646497 -2.608370275000452 6.297162893596931 S0.9164103884177657 4.853580946064463 -1.9685852788233487 1.9685852788233489 S-4.735814489547364 6.377798767646503 -6.297162893596931 2.608370275000453 S-2.7840000000000003 4.08 -2.7840000000000007 3.409416688826232e-16 S-7.858511297646498 1.161058217645599 -6.297162893596932 -2.6083702750004516 S-4.853580946064463 0.9164103884177661 -1.9685852788233493 -1.9685852788233487 S-6.377798767646505 -4.735814489547361 -2.608370275000456 -6.29716289359693 S-4.080000000000001 -2.784 -5.1141250332393475e-16 -2.7840000000000007 S-1.1610582176455955 -7.858511297646498 2.608370275000454 -6.29716289359693 S-0.9164103884177666 -4.853580946064463 1.9685852788233482 -1.9685852788233493 S4.735814489547361 -6.377798767646505 6.29716289359693 -2.6083702750004565 S2.784 -4.080000000000001 2.7840000000000007 -6.818833377652464e-16" fill="#e4d8eb" stroke-width="0">
    <animateTransform attributeName="transform" type="rotate" dur="100s" repeatCount="indefinite" values="0;45"></animateTransform>
  </path>
</g><g transform="translate(1362.1280548767186,271.8494929555915) scale(100)" opacity="0.9">
  <path d="M3.3408 0 C3.3408 4.896 9.430213557175795 -1.3932698611747174 7.5565954723163165 3.1300443300005423 S5.824297135277355 -1.099692466101319 2.3623023345880183 2.362302334588018 S7.653358521175802 5.682977387456837 3.1300443300005427 7.5565954723163165 S4.896 3.3407999999999998 2.045650013295739e-16 3.3408 S1.3932698611747178 9.430213557175795 -3.130044330000542 7.5565954723163165 S1.099692466101319 5.824297135277355 -2.362302334588018 2.3623023345880183 S-5.682977387456837 7.653358521175803 -7.5565954723163165 3.130044330000543 S-3.3407999999999998 4.896 -3.3408 4.091300026591478e-16 S-9.430213557175797 1.3932698611747192 -7.556595472316317 -3.1300443300005414 S-5.824297135277355 1.0996924661013194 -2.3623023345880187 -2.362302334588018 S-7.6533585211758055 -5.682977387456832 -3.1300443300005467 -7.556595472316315 S-4.896000000000001 -3.3407999999999993 -6.136950039887216e-16 -3.3408 S-1.3932698611747156 -9.430213557175795 3.130044330000544 -7.556595472316316 S-1.0996924661013199 -5.824297135277355 2.3623023345880174 -2.3623023345880187 S5.682977387456832 -7.6533585211758055 7.556595472316315 -3.130044330000547 S3.340799999999999 -4.896000000000001 3.3408 -8.182600053182956e-16" fill="#dbc9e4" stroke-width="0">
    <animateTransform attributeName="transform" type="rotate" dur="50s" repeatCount="indefinite" values="0;45"></animateTransform>
  </path>
</g><g transform="translate(1586.979276827406,221.58929013782807) scale(100)" opacity="0.9">
  <path d="M4.67712 0 C4.67712 6.8544 13.202298980046113 -1.9505778056446044 10.579233661242842 4.3820620620007595 S8.154015989388295 -1.5395694525418464 3.3072232684232254 3.307223268423225 S10.714701929646123 7.95616834243957 4.3820620620007595 10.579233661242842 S6.8544 4.67712 2.8639100186140346e-16 4.67712 S1.9505778056446053 13.202298980046113 -4.382062062000759 10.579233661242842 S1.5395694525418464 8.154015989388295 -3.307223268423225 3.3072232684232254 S-7.95616834243957 10.714701929646125 -10.579233661242842 4.38206206200076 S-4.6771199999999995 6.854400000000001 -4.67712 5.727820037228069e-16 S-13.202298980046114 1.950577805644607 -10.579233661242844 -4.382062062000758 S-8.154015989388297 1.5395694525418473 -3.3072232684232263 -3.307223268423225 S-10.714701929646129 -7.956168342439565 -4.382062062000766 -10.57923366124284 S-6.854400000000001 -4.6771199999999995 -8.591730055842103e-16 -4.67712 S-1.9505778056446017 -13.202298980046116 4.382062062000761 -10.579233661242842 S-1.5395694525418477 -8.154015989388297 3.3072232684232246 -3.3072232684232263 S7.956168342439565 -10.714701929646129 10.57923366124284 -4.382062062000766 S4.677119999999999 -6.854400000000001 4.67712 -1.1455640074456138e-15" fill="#d2bbdc" stroke-width="0">
    <animateTransform attributeName="transform" type="rotate" dur="33.333333333333336s" repeatCount="indefinite" values="0;45"></animateTransform>
  </path>
</g><g transform="translate(2059.16684292385,116.0428642205249) scale(100)" opacity="0.9">
  <path d="M7.483392000000001 0 C7.483392000000001 10.967039999999999 21.12367836807378 -3.120924489031367 16.926773857988547 7.011299299201214 S13.046425583021275 -2.463311124066953 5.291557229477162 5.291557229477161 S17.143523087433795 12.729869347903312 7.011299299201215 16.926773857988547 S10.967039999999999 7.483392 4.582256029782456e-16 7.483392000000001 S3.120924489031368 21.12367836807378 -7.011299299201213 16.926773857988547 S2.463311124066953 13.046425583021275 -5.291557229477161 5.291557229477162 S-12.72986934790331 17.1435230874338 -16.926773857988547 7.011299299201216 S-7.483391999999999 10.96704 -7.483392000000001 9.164512059564912e-16 S-21.123678368073783 3.1209244890313705 -16.92677385798855 -7.011299299201212 S-13.046425583021275 2.463311124066954 -5.291557229477163 -5.291557229477161 S-17.143523087433802 -12.729869347903303 -7.011299299201224 -16.926773857988543 S-10.96704 -7.483391999999999 -1.3746768089347365e-15 -7.483392000000001 S-3.1209244890313608 -21.123678368073783 7.011299299201219 -16.926773857988547 S-2.463311124066955 -13.046425583021275 5.29155722947716 -5.291557229477163 S12.729869347903303 -17.143523087433806 16.926773857988543 -7.011299299201226 S7.4833919999999985 -10.96704 7.483392000000001 -1.8329024119129824e-15" fill="#caacd4" stroke-width="0">
    <animateTransform attributeName="transform" type="rotate" dur="25s" repeatCount="indefinite" values="0;45"></animateTransform>
  </path>
</g></g>
</svg>