<svg width="77" height="29" viewBox="0 0 77 29" fill="none" xmlns="http://www.w3.org/2000/svg">
<path d="M32.3414 1.49861L26.8413 10.169L20.7648 0.585938H10.8828V27.8542H20.159V14.3375L26.6812 24.0353H26.8413L32.3414 15.8586V1.49861Z" fill="#0E52B7"/>
<path d="M68.1779 16.8285C67.9564 17.2074 67.7269 17.565 67.4787 17.8959C66.4005 19.329 65.0048 20.255 62.8326 20.255C62.2481 20.255 61.6957 20.167 61.1833 20.0015C60.5028 19.78 59.8944 19.4197 59.3767 18.9447C59.2486 18.8246 59.1231 18.6992 59.0084 18.5658C58.6561 18.1655 58.3599 17.7038 58.1277 17.1887C58.0504 17.018 57.9783 16.8392 57.9169 16.6577C57.7888 16.2921 57.6928 15.9025 57.626 15.4968C57.5593 15.0912 57.5246 14.6615 57.5246 14.2185V14.1412C57.5246 12.7108 57.9276 11.3898 58.6481 10.357C59.5768 9.0307 61.0312 8.1794 62.8299 8.1794C64.287 8.1794 65.3998 8.61172 66.2831 9.33492C66.3819 9.41498 66.4753 9.50038 66.5687 9.58577C66.7528 9.76191 66.9289 9.94871 67.0917 10.1489C67.42 10.5518 67.7108 11.0002 67.975 11.4885L75.7942 7.08792C74.2997 4.48332 72.0954 2.36442 69.1279 1.14218C67.3452 0.410971 65.2904 0 62.9527 0C61.1006 0 59.3366 0.290882 57.7141 0.829949C55.8567 1.44641 54.1835 2.38844 52.7638 3.592C52.4088 3.89355 52.0699 4.21112 51.747 4.54204C49.3346 7.03722 47.8828 10.3997 47.8828 14.2159V14.2933C47.8828 14.5575 47.8908 14.819 47.9042 15.0778C47.9442 15.8544 48.0429 16.6043 48.1924 17.3275C48.3445 18.0507 48.55 18.7472 48.8035 19.4117C49.2278 20.5219 49.7882 21.5493 50.4634 22.4807C51.0025 23.2279 51.6136 23.9111 52.2887 24.5329C52.625 24.8424 52.9773 25.136 53.3429 25.4108C54.8079 26.5157 56.4945 27.3429 58.3119 27.85C58.7655 27.9781 59.2299 28.0848 59.6996 28.1702C60.6389 28.3437 61.605 28.4318 62.587 28.4318C63.0274 28.4318 63.457 28.4184 63.8733 28.3944C64.706 28.3437 65.4932 28.2449 66.2378 28.1008C67.3533 27.8847 68.37 27.5698 69.2987 27.1721C72.0821 25.9793 74.0729 24.0418 75.53 21.8215C75.6928 21.5733 75.8476 21.3251 75.997 21.0716L68.1779 16.8285Z" fill="#0E52B7"/>
<path d="M2.68658 24.8458V27.8933H1V19.4951H2.68658V22.5427H9.23277V24.8458H2.68658Z" fill="#0F426B"/>
<path d="M1 18.191V15.888H4.27176V11.9944H1V9.69141H9.23277V11.9944H5.96101V15.888H9.23277V18.191H1Z" fill="#0F426B"/>
<path d="M1 7.56544V0.666992H2.68658V5.2624H4.21572V0.666992H5.90497V5.2624H7.54619V0.666992H9.23277V7.56544H1Z" fill="#0F426B"/>
<path d="M50.9943 25.5725C49.3077 24.022 48.0348 22.1459 47.2128 20.0644H43.8423V0.585938H34.3633V27.8542H54.2047C53.0465 27.2297 51.9683 26.4665 50.9943 25.5725Z" fill="#0E52B7"/>
</svg>
