<svg fill="none" height="272.282814" viewBox="0 0 58.453796 42.996185" width="367.265192" xmlns="http://www.w3.org/2000/svg"><path d="m1.2067763 20.807488c3.0424 8.482 10.7868997 24.4386 22.3509997 21.9229 4.7942-1.0405 7.9288-4.8798 11.5376-7.8169 4.083-3.3322 8.2977-5.2618 12.6902-8.1594 0 0 15.8511-8.3635 8.9101-16.8256998 0 0-5.5318-7.6984-25.7293-9.69380001-17.919-1.76489999-35.8313997 6.55910001-29.7595997 20.57289981z" fill="#e80033"/><path d="m14.812276 14.366988h-2.6144v-3.8459h2.2522c1.6727 0 2.4695.7507 2.4695 1.9229 0 1.2051-.8824 1.923-2.1073 1.923zm.3029-5.9664998h-4.9061s0 0-.0066 0c-.2370997 0-.4280997.191-.4280997.4281v.0198 11.9129998.0066c0 .2371.191.4281.4280997.4281h.0263 1.541c.2371 0 .4281-.191.4281-.4281v-4.274h2.2917.0197c1.1986-.0329 2.3971-.4478 2.3971-.4478.6125-.2305 2.5354-.8956 2.5354-3.7734 0-2.2522-1.6002-3.8722998-4.3266-3.8722998z" fill="#fff"/><path d="m25.974676 14.360388h-2.6079v-3.8459h2.2522c1.6662 0 2.4564.7573 2.4564 1.9229.0066 1.2052-.8824 1.923-2.1007 1.923zm4.5966 6.2035-2.5156-4.5308c.6124-.2305 2.5354-.8957 2.5354-3.7735 0-2.2456-1.6003-3.8590998-4.3201-3.8590998h-4.8798c-.2371 0-.4215.191-.4215.4281v.0132 11.9195998.0066c0 .2305.1844.4215.4149.4215v.0066h1.5542.0066c.237 0 .428-.191.428-.4281 0 0 0-.0066 0-.0132v-4.2739h2.2852l2.351 4.4781c.0658.1317.2041.2239.3687.2305h.0066 1.7913.0263c.2371 0 .4281-.191.4281-.4281 0-.0658-.0264-.1383-.0593-.1975z" fill="#fff"/><path d="m38.948076 13.695188-1.5608-.3424c-1.4356-.3227-2.6407-.5729-2.6407-1.6332 0-.8956 1.0405-1.4159 2.4234-1.4224 1.3829 0 2.4695.5334 3.1281 1.4685.079.112.2041.1778.349.1778.1054 0 .1976-.0395.27-.0988l1.2578-.9549s0 0 0-.0065c.0988-.0791.1581-.1976.1581-.3293 0-.1054-.0395-.1976-.0988-.27-.0066-.0066-.0066-.0066-.0066-.0132-1.2973-1.5080998-3.0095-2.2126998-5.0444-2.2126998-2.3905 0-4.9589 1.2908-4.9589 3.9841998 0 2.351 1.7979 3.1083 3.8393 3.5759l1.4159.3227c1.7056.3951 2.6408.6849 2.6408 1.6924 0 1.2381-1.541 1.6332-2.7132 1.6332-1.4357 0-2.733-.5136-3.6286-1.6266 0 0-.0066 0-.0066-.0066-.079-.0856-.191-.1448-.3161-.1448-.0922 0-.1778.0263-.2437.079l-1.35.9746v.0066c-.1053.079-.1778.2042-.1778.349 0 .0922.033.1778.079.2437 0 .0066.0066.0132.0132.0198 1.2578 1.5409 3.2927 2.3378 5.2618 2.3378 2.6539 0 5.5976-1.08 5.5976-4.2081.0066-2.4037-1.7846-3.1808-3.6878-3.5957z" fill="#fff"/><path d="m13.448876 23.250688c-.1646-.112-.349-.1844-.5861-.1844-.4083 0-.7376.2766-.8627.9154l-.0922.4675h.9878l-.2502.6257h-.8298c-.3227 1.9756-.5795 4.3924-2.0216997 5.4725l-.4478-.4742c1.1260997-1.0207 1.3433997-2.6408 1.7319997-4.9983h-.6191l.0856-.6257h.5861l.1054-.5268c.2305-1.2051 1.0208-1.5081 1.6398-1.5081.3029 0 .5993.0593.8824.2305z" fill="#fabbab"/><path d="m15.786876 25.338288c-.1449-.1449-.3557-.2437-.6388-.2437-.3491 0-.652.1581-.8759.4083-.3359.3622-.5202.9154-.5202 1.5081 0 .3622.0922.6717.3029.8627.1449.1383.349.2239.6124.2239.2964 0 .5598-.1317.7705-.3293.3688-.3622.5993-.9746.5993-1.5805.0066-.3622-.0659-.6585-.2502-.8495zm.237 2.8186c-.3819.3556-.8627.5597-1.4093.5597-.5268 0-.9087-.158-1.159-.4083-.3227-.3293-.461-.8034-.461-1.3171 0-.7639.27-1.4619.7376-1.9295.3688-.382.889-.6125 1.4883-.6125.5268 0 .9088.1647 1.159.4347.303.3227.4347.7705.4347 1.2644-.0066.8363-.2964 1.5542-.7903 2.0086z" fill="#fabbab"/><path d="m20.126776 25.318488c-.112-.0593-.27-.0856-.3951-.0856-.4149 0-.9088.4149-1.2381 1.9559l-.3095 1.4685h-.7573l.8824-4.0895h.5993l-.1186.8297h.0066c.27-.5795.6191-.9285 1.1591-.9285.2239 0 .3951.0593.54.158z" fill="#fabbab"/><g fill="#fff"><path d="m26.290576 28.295188v-4.1489c0-.1251-.0988-.2239-.2239-.2239h-.0066-.5202-.0066c-.079 0-.1515.0395-.191.1054l-1.0339 1.5937c-.1383.2107-.2371.3819-.3161.5466h-.0066c-.0988-.1647-.1976-.3293-.3359-.5137l-1.1326-1.62c-.0396-.0593-.1054-.1054-.1844-.1054h-.0066-.5269-.0065c-.1252 0-.224.0988-.224.2239v.0066 4.1488c0 .1186.0988.2239.224.2239h.507c.1252 0 .2239-.0988.2239-.2239 0 0 0 0 0-.0066v-2.3444c0-.1317 0-.2963-.0065-.4675h.0131c.0922.1843.2042.3226.2898.4478l.8824 1.2446c.0395.0527.0988.0922.1713.0922h.2107c.079 0 .1449-.0395.1844-.0988l.7836-1.2051c.0791-.1185.2371-.3556.2832-.4807h.0132c-.0132.158-.0132.3292-.0132.4939v2.3115.0065c0 .1186.0988.2174.2173.2239h.5071c.1317 0 .2305-.0987.2305-.2304 0 0 0 .0065 0 0z"/><path d="m31.275876 24.146288c0-.1251-.0987-.2239-.2239-.2239 0 0 0 0-.0065 0h-.5005s0 0-.0066 0c-.1251 0-.2239.0988-.2239.2239v2.6474c0 .3029-.0725.5466-.2305.7112-.1712.191-.4347.2898-.8034.2898-.3227 0-.5993-.0988-.7705-.2898-.1515-.1712-.2569-.4149-.2569-.7507v-2.6079c0-.1251-.0988-.2239-.2239-.2239h-.0066-.4939-.0066c-.1251 0-.2239.0988-.2239.2239v.0066 2.6803c0 .54.1449.9878.4544 1.2907.3293.3227.8298.4742 1.5081.4742.6981 0 1.192-.191 1.5344-.5334.3161-.3161.4676-.7771.4676-1.3303v-2.5881z"/><path d="m33.020876 25.061688c0-.2634.2634-.4215.6059-.4215.2766 0 .5268.0659.7902.1844.0264.0132.0593.0198.0856.0198.1186 0 .2174-.0922.224-.2108v-.0065s0 0 0-.0066l.0065-.3293s0 0 0-.0066c0-.0922-.0592-.1712-.1383-.2041-.2568-.1186-.6058-.2042-1.0141-.2042-1.0142 0-1.5608.6125-1.5608 1.3105 0 .3556.1186.6125.2964.8166.5597.6322 1.6727.7376 1.6727 1.35 0 .3491-.3754.4742-.7112.4742-.3293 0-.6191-.1054-.8627-.2437h-.0066c-.0264-.0132-.0593-.0263-.0988-.0263-.0856 0-.1581.0527-.1976.1251l-.158.2963c-.0132.0264-.0198.0593-.0198.0988 0 .079.0395.1449.1054.1844l.0066.0066c.3161.1712.731.3227 1.2776.3227.9417 0 1.6792-.5203 1.6792-1.3632-.0131-1.4422-1.9822-1.3698-1.9822-2.1666z"/><path d="m36.820876 24.152888c0-.0066 0-.0066 0 0 0-.1251-.0988-.2239-.2239-.2239h-.5071c-.1252 0-.2239.0988-.2239.2239v.0066 4.1422.0066c0 .1185.0987.2173.2173.2239h.5071c.1185 0 .2239-.0988.2239-.2239 0 0 0 0 0-.0066v-4.1488z"/><path d="m41.529476 28.031688c0-.0263-.0066-.0526-.0132-.079l-.1054-.27c-.0329-.079-.1119-.1383-.2041-.1383-.0329 0-.0593.0066-.0856.0198-.2898.1317-.5927.2107-.9352.2107-.9087 0-1.4751-.6915-1.4751-1.5673 0-.7969.4742-1.5476 1.5542-1.5476.2766 0 .5597.0461.8561.1712h.0132c.0197.0066.0461.0132.0658.0132.1251 0 .2173-.0988.2239-.2173l.0066-.3556c0-.0988-.0593-.1779-.1449-.2042-.2897-.1119-.6585-.1778-1.0537-.1778-1.5673 0-2.5617 1.0734-2.5617 2.3905 0 1.2973.8495 2.3247 2.351 2.3247.461 0 .9154-.1054 1.3895-.3688.0725-.0527.1186-.1186.1186-.2042z"/></g></svg>