<?xml version="1.0" standalone="no"?>
<!DOCTYPE svg PUBLIC "-//W3C//DTD SVG 20010904//EN"
 "http://www.w3.org/TR/2001/REC-SVG-20010904/DTD/svg10.dtd">
<svg version="1.0" xmlns="http://www.w3.org/2000/svg"
 width="3000.000000pt" height="3000.000000pt" viewBox="0 0 3000.000000 3000.000000"
 preserveAspectRatio="xMidYMid meet">

<g transform="translate(0.000000,3000.000000) scale(0.100000,-0.100000)"
fill="#262b6d" stroke="none">
<path d="M8755 26939 c-659 -66 -1233 -271 -1770 -633 -378 -255 -756 -635
-1010 -1016 -377 -566 -583 -1187 -625 -1880 -6 -107 -10 -2957 -10 -8097 l0
-7933 150 0 149 0 3 128 c2 70 0 1380 -5 2912 -7 2706 -1 12529 8 12820 7 207
14 310 31 430 177 1297 1071 2383 2305 2800 393 133 769 188 1202 177 311 -8
494 -33 772 -104 463 -118 882 -325 1275 -629 137 -106 446 -411 551 -544 409
-518 648 -1077 734 -1715 16 -117 42 -702 32 -727 -3 -9 -65 -36 -144 -62
l-138 -47 -2413 -3217 -2413 -3217 872 -3 872 -2 -5 -4349 c-3 -2393 -3 -4415
0 -4495 l5 -146 233 0 234 0 -1 148 c0 81 1 2159 2 4617 1 2459 1 4523 0 4588
l-1 117 -625 0 c-344 0 -625 2 -625 5 0 3 209 286 465 628 l465 621 0 -257 0
-257 135 0 135 0 0 437 0 436 653 871 c360 479 1026 1366 1481 1971 l826 1100
2168 723 c1192 397 2176 722 2187 722 20 0 4331 -1434 4351 -1448 13 -8 2937
-3900 2953 -3930 8 -14 11 -156 11 -451 l0 -431 135 0 135 0 2 253 3 252 463
-618 c254 -340 462 -620 462 -622 0 -3 -281 -5 -624 -5 l-623 0 -7 -62 c-3
-35 -3 -2115 0 -4623 3 -2508 5 -4611 5 -4672 l-1 -113 235 0 235 0 0 123 c0
67 0 2090 0 4494 l0 4373 870 2 871 3 -2413 3217 -2413 3217 -2325 776 -2325
775 -2037 -679 -2036 -679 -1 212 c-1 586 -126 1118 -387 1646 -183 371 -405
681 -699 976 -599 601 -1327 959 -2195 1080 -135 19 -665 28 -805 13z"/>
<path d="M13580 18170 l0 -2340 135 0 135 0 0 2340 0 2340 -135 0 -135 0 0
-2340z"/>
<path d="M19980 18170 l0 -2340 135 0 135 0 0 2340 0 2340 -135 0 -135 0 0
-2340z"/>
<path d="M11020 18165 l0 -1895 140 0 140 0 0 1895 0 1895 -140 0 -140 0 0
-1895z"/>
<path d="M22530 18165 l0 -1896 138 3 137 3 3 1893 2 1892 -140 0 -140 0 0
-1895z"/>
<path d="M15266 19703 c-8 -154 -8 -2890 0 -3055 l7 -128 1643 0 1644 0 0 75
c1 41 1 750 1 1575 0 825 0 1534 -1 1575 l0 75 -1644 0 -1643 0 -7 -117z
m3004 -1533 l0 -1350 -1355 0 -1355 0 0 1350 0 1350 1355 0 1355 0 0 -1350z"/>
<path d="M12730 18170 l0 -1620 135 0 135 0 0 1620 0 1620 -135 0 -135 0 0
-1620z"/>
<path d="M20828 18980 c-3 -445 -3 -1174 0 -1620 l5 -810 133 0 134 0 0 1620
0 1620 -134 0 -133 0 -5 -810z"/>
<path d="M14420 18170 l0 -950 133 0 134 0 6 233 c4 127 7 450 7 717 0 267 -3
590 -7 718 l-6 232 -134 0 -133 0 0 -950z"/>
<path d="M19130 18170 l0 -950 140 0 140 0 0 950 0 950 -140 0 -140 0 0 -950z"/>
<path d="M10170 18170 l0 -840 135 0 135 0 0 840 0 840 -135 0 -135 0 0 -840z"/>
<path d="M23385 18585 c-4 -234 -4 -612 0 -840 l7 -415 134 0 134 0 0 840 0
840 -134 0 -134 0 -7 -425z"/>
<path d="M11887 18714 c-4 -4 -7 -252 -7 -551 l0 -543 140 0 140 0 -2 548 -3
547 -131 3 c-71 1 -133 -1 -137 -4z"/>
<path d="M21670 18170 l0 -550 135 0 135 0 0 550 0 550 -135 0 -135 0 0 -550z"/>
<path d="M12265 15148 c-4 -68 -4 -1795 -1 -3838 4 -2043 6 -3743 6 -3777 l0
-63 4645 0 4645 0 0 68 c-1 37 1 1755 3 3817 2 2063 2 3787 -1 3833 l-5 82
-4642 0 -4643 0 -7 -122z m4363 -216 c-811 -1353 -1963 -3270 -1964 -3269 -4
5 -1966 3272 -1975 3289 -9 17 52 18 1976 18 l1986 0 -23 -38z m4519 31 c-3
-5 -449 -748 -992 -1653 -543 -905 -988 -1646 -989 -1648 -2 -1 -1953 3245
-1983 3301 -2 4 890 7 1982 7 1092 0 1984 -3 1982 -7z m-7608 -2005 l953
-1587 -953 -1588 c-524 -873 -958 -1597 -966 -1608 -11 -16 -13 507 -13 3195
0 2670 2 3211 13 3195 8 -11 442 -734 966 -1607z m3231 -1585 c0 -2711 -2
-3205 -14 -3193 -7 8 -442 729 -965 1602 l-952 1588 963 1605 c530 883 964
1605 965 1605 2 0 3 -1443 3 -3207z m1269 1584 l952 -1587 -950 -1583 c-523
-870 -957 -1591 -965 -1602 -14 -18 -15 321 -16 3190 0 2684 2 3206 13 3190 8
-11 442 -734 966 -1608z m3229 -3194 l-3 -1606 -964 1606 -964 1607 964 1607
964 1606 3 -1606 c1 -884 1 -2330 0 -3214z m-5607 -340 l989 -1648 -996 -3
c-547 -1 -1440 -1 -1984 0 l-988 3 991 1652 c545 909 993 1650 995 1648 3 -2
449 -746 993 -1652z m4503 -8 l984 -1640 -995 -3 c-547 -1 -1440 -1 -1984 0
l-989 3 992 1653 c644 1074 994 1649 999 1640 5 -7 451 -751 993 -1653z"/>
<path d="M3755 6296 c-202 -47 -350 -160 -435 -332 -59 -120 -74 -199 -74
-394 0 -149 3 -187 22 -253 63 -228 206 -384 414 -453 76 -26 95 -28 238 -28
143 0 162 2 238 28 208 69 351 225 414 453 19 66 22 104 22 253 0 149 -3 187
-22 253 -46 167 -128 288 -254 373 -114 78 -208 106 -373 110 -87 2 -150 -1
-190 -10z m314 -75 c188 -71 287 -258 307 -576 12 -199 -22 -397 -90 -533 -50
-100 -104 -155 -193 -199 -73 -36 -82 -38 -173 -38 -91 0 -100 2 -173 38 -163
81 -252 251 -279 535 -13 135 -1 317 28 427 52 197 174 331 334 365 63 13 180
4 239 -19z"/>
<path d="M12619 6287 c-111 -38 -203 -131 -230 -232 -6 -22 -9 -77 -7 -122 4
-66 10 -93 36 -146 60 -121 166 -196 426 -302 128 -52 206 -132 226 -232 47
-222 -132 -405 -356 -364 -173 32 -284 143 -310 309 -5 32 -11 42 -25 42 -18
0 -19 -11 -19 -185 0 -102 4 -185 9 -185 4 0 18 27 30 60 12 33 25 60 28 60 3
0 29 -22 59 -49 88 -81 209 -117 363 -108 159 9 271 62 345 165 82 113 88 306
14 462 -51 106 -188 205 -396 284 -110 42 -159 72 -201 123 -92 112 -56 288
72 355 57 30 182 31 247 1 102 -45 162 -125 182 -239 10 -60 15 -74 30 -74 17
0 18 13 18 180 0 168 -8 216 -25 158 -4 -13 -14 -37 -22 -55 l-15 -31 -38 38
c-103 103 -288 139 -441 87z"/>
<path d="M25149 6287 c-111 -38 -203 -131 -230 -232 -6 -22 -9 -77 -7 -122 4
-66 10 -93 36 -146 60 -121 166 -196 426 -302 128 -52 206 -132 226 -232 47
-222 -132 -405 -356 -364 -173 32 -284 143 -310 309 -5 32 -11 42 -25 42 -18
0 -19 -11 -19 -185 0 -102 4 -185 9 -185 4 0 18 27 30 60 12 33 25 60 28 60 3
0 29 -22 59 -49 88 -81 209 -117 363 -108 159 9 271 62 345 165 82 113 88 306
14 462 -51 106 -188 205 -396 284 -110 42 -159 72 -201 123 -92 112 -56 288
72 355 57 30 182 31 247 1 102 -45 162 -125 182 -239 10 -60 15 -74 30 -74 17
0 18 13 18 180 0 168 -8 216 -25 158 -4 -13 -14 -37 -22 -55 l-15 -31 -38 38
c-103 103 -288 139 -441 87z"/>
<path d="M27484 6291 c-128 -31 -217 -82 -309 -174 -66 -66 -90 -99 -123 -167
-66 -137 -76 -191 -76 -380 0 -189 10 -243 76 -380 58 -121 171 -234 289 -289
120 -56 217 -75 348 -68 172 8 301 67 414 187 63 66 133 182 122 200 -12 20
-24 9 -56 -50 -79 -149 -245 -264 -419 -291 -205 -31 -364 50 -463 238 -126
241 -126 665 0 906 53 101 111 160 201 204 74 37 79 38 181 38 226 -1 376 -91
466 -280 27 -55 42 -75 56 -75 18 0 19 9 19 190 0 105 -4 190 -8 190 -5 0 -18
-24 -30 -52 -12 -29 -31 -64 -41 -77 l-19 -25 -47 42 c-62 55 -152 98 -240
117 -94 20 -252 18 -341 -4z"/>
<path d="M1726 6253 c-10 -37 -56 -356 -52 -361 15 -14 34 13 54 75 32 100 89
185 149 220 46 27 53 28 206 31 l157 4 0 -651 0 -651 -105 0 -105 0 0 -25 0
-25 310 0 310 0 0 25 0 25 -105 0 -105 0 0 651 0 651 158 -4 c152 -3 159 -4
205 -31 60 -35 117 -120 149 -220 20 -62 39 -89 54 -75 4 5 -42 324 -52 361
-5 16 -43 17 -614 17 -571 0 -609 -1 -614 -17z"/>
<path d="M4850 6245 c0 -25 1 -25 80 -25 l80 0 0 -650 0 -650 -80 0 c-79 0
-80 0 -80 -25 l0 -25 190 0 190 0 0 25 c0 25 -1 25 -80 25 l-80 0 0 602 c0
331 2 599 5 597 2 -3 132 -284 288 -625 l284 -619 34 -3 34 -3 244 538 c135
296 260 570 278 608 l32 70 1 -582 0 -583 -80 0 c-79 0 -80 0 -80 -25 l0 -25
260 0 260 0 0 25 c0 25 -1 25 -80 25 l-80 0 0 650 0 650 80 0 c79 0 80 0 80
25 l0 25 -182 -2 -182 -3 -266 -582 c-146 -320 -268 -579 -271 -575 -4 4 -116
267 -250 584 l-244 578 -192 0 -193 0 0 -25z"/>
<path d="M6960 6245 c0 -25 1 -25 80 -25 l80 0 0 -650 0 -650 -80 0 c-79 0
-80 0 -80 -25 l0 -25 260 0 260 0 0 25 c0 25 -1 25 -80 25 l-80 0 0 305 0 305
153 0 c171 0 244 13 335 59 257 130 257 492 0 622 -106 54 -151 59 -515 59
l-333 0 0 -25z m601 -49 c76 -17 143 -58 180 -109 106 -146 57 -373 -100 -465
-43 -25 -55 -27 -183 -30 l-138 -4 0 311 0 311 93 0 c50 0 117 -6 148 -14z"/>
<path d="M8310 6245 c0 -25 1 -25 80 -25 l80 0 0 -650 0 -650 -80 0 c-79 0
-80 0 -80 -25 l0 -25 260 0 260 0 0 25 c0 25 -1 25 -80 25 l-80 0 0 305 0 305
281 -302 282 -303 -52 -3 c-47 -3 -51 -5 -51 -28 l0 -24 260 0 260 0 0 25 c0
24 -2 25 -77 26 l-78 0 -335 365 c-184 201 -335 369 -335 373 0 5 134 133 297
285 l297 276 86 0 c84 0 85 0 85 25 l0 25 -250 0 -250 0 0 -25 0 -25 125 0
125 0 -323 -293 c-178 -162 -329 -297 -335 -301 -9 -5 -12 67 -12 293 l0 301
80 0 c79 0 80 0 80 25 l0 25 -260 0 -260 0 0 -25z"/>
<path d="M9860 6245 c0 -25 1 -25 80 -25 l80 0 0 -650 0 -650 -80 0 c-79 0
-80 0 -80 -25 l0 -25 260 0 260 0 0 25 c0 25 -1 25 -80 25 l-80 0 0 650 0 650
80 0 c79 0 80 0 80 25 l0 25 -260 0 -260 0 0 -25z"/>
<path d="M10690 6245 c0 -25 1 -25 80 -25 l80 0 0 -650 0 -650 -80 0 c-79 0
-80 0 -80 -25 l0 -25 190 0 190 0 0 25 c0 25 -1 25 -80 25 l-80 0 0 632 0 631
458 -656 c444 -637 458 -656 490 -657 l32 0 0 675 0 675 80 0 c79 0 80 0 80
25 l0 25 -190 0 -190 0 0 -25 c0 -25 1 -25 80 -25 l80 0 0 -492 c0 -482 -1
-492 -19 -469 -10 13 -173 246 -362 517 l-344 493 -207 1 -208 0 0 -25z"/>
<path d="M14240 6245 c0 -25 1 -25 80 -25 l80 0 0 -650 0 -650 -80 0 c-79 0
-80 0 -80 -25 l0 -25 260 0 260 0 0 25 c0 25 -1 25 -80 25 l-80 0 0 321 0 321
163 -4 c136 -2 167 -6 190 -21 51 -33 75 -92 92 -219 4 -32 11 -48 21 -48 12
0 14 48 14 320 0 264 -2 320 -14 320 -9 0 -15 -21 -20 -72 -9 -91 -43 -166
-88 -193 -29 -17 -55 -20 -195 -23 l-163 -4 0 302 0 301 253 -3 c224 -3 256
-5 280 -21 51 -33 71 -81 92 -224 4 -27 12 -43 21 -43 11 0 14 30 14 170 l0
170 -510 0 -510 0 0 -25z"/>
<path d="M15693 5598 l-261 -673 -71 -3 c-68 -3 -71 -4 -71 -27 l0 -25 200 0
200 0 0 25 c0 25 -1 25 -89 25 l-88 0 76 205 76 205 271 0 271 0 80 -205 81
-205 -79 0 c-78 0 -79 0 -79 -25 l0 -25 270 0 270 0 0 25 c0 25 -1 25 -79 25
l-79 0 -137 323 c-75 177 -205 481 -287 675 l-150 352 -32 0 -32 0 -261 -672z
m362 112 c64 -162 119 -301 122 -307 4 -10 -48 -13 -242 -13 -147 0 -245 4
-243 9 76 213 234 618 239 613 3 -4 59 -140 124 -302z"/>
<path d="M16960 6245 c0 -25 1 -25 80 -25 l80 0 0 -650 0 -650 -80 0 c-79 0
-80 0 -80 -25 l0 -25 260 0 260 0 0 25 c0 25 -1 25 -80 25 l-80 0 0 305 0 305
63 0 62 0 255 -330 255 -329 153 -1 c142 0 152 1 152 19 0 14 -10 20 -42 25
-40 6 -60 23 -308 276 -146 148 -285 285 -308 305 l-44 35 34 0 c106 1 249 62
319 137 155 166 103 440 -103 544 -106 54 -151 59 -515 59 l-333 0 0 -25z
m601 -49 c76 -17 143 -58 180 -109 106 -146 57 -373 -100 -465 -43 -25 -55
-27 -183 -30 l-138 -4 0 311 0 311 93 0 c50 0 117 -6 148 -14z"/>
<path d="M18490 6245 c0 -25 1 -25 80 -25 l80 0 0 -650 0 -650 -80 0 c-79 0
-80 0 -80 -25 l0 -25 190 0 190 0 0 25 c0 25 -1 25 -80 25 l-80 0 0 602 c0
331 2 599 5 597 2 -3 132 -284 288 -625 l284 -619 34 -3 34 -3 244 538 c135
296 260 570 278 608 l32 70 1 -582 0 -583 -80 0 c-79 0 -80 0 -80 -25 l0 -25
260 0 260 0 0 25 c0 25 -1 25 -80 25 l-80 0 0 650 0 650 80 0 c79 0 80 0 80
25 l0 25 -182 -2 -182 -3 -266 -582 c-146 -320 -268 -579 -271 -575 -4 4 -116
267 -250 584 l-244 578 -192 0 -193 0 0 -25z"/>
<path d="M21170 6245 c0 -25 1 -25 80 -25 l80 0 0 -650 0 -650 -80 0 c-79 0
-80 0 -80 -25 l0 -25 190 0 190 0 0 25 c0 25 -1 25 -80 25 l-80 0 0 602 c0
331 2 599 5 597 2 -3 132 -284 288 -625 l284 -619 34 -3 34 -3 244 538 c135
296 260 570 278 608 l32 70 1 -582 0 -583 -80 0 c-79 0 -80 0 -80 -25 l0 -25
260 0 260 0 0 25 c0 25 -1 25 -80 25 l-80 0 0 650 0 650 80 0 c79 0 80 0 80
25 l0 25 -182 -2 -182 -3 -266 -582 c-146 -320 -268 -579 -271 -575 -4 4 -116
267 -250 584 l-244 578 -192 0 -193 0 0 -25z"/>
<path d="M23240 6245 c0 -25 1 -25 80 -25 l80 0 0 -472 c0 -369 3 -488 14
-540 42 -196 170 -322 369 -365 100 -21 290 -13 371 16 163 58 250 159 290
338 13 61 16 146 16 547 l0 476 80 0 c79 0 80 0 80 25 l0 25 -190 0 -190 0 0
-25 c0 -25 1 -25 81 -25 l80 0 -3 -487 c-3 -465 -5 -491 -25 -550 -55 -165
-166 -256 -342 -284 -181 -28 -324 33 -379 160 -43 102 -45 125 -49 654 l-4
507 80 0 c80 0 81 0 81 25 l0 25 -260 0 -260 0 0 -25z"/>
<path d="M26120 6245 c0 -25 1 -25 80 -25 l80 0 0 -650 0 -650 -80 0 c-79 0
-80 0 -80 -25 l0 -25 260 0 260 0 0 25 c0 25 -1 25 -80 25 l-80 0 0 650 0 650
80 0 c79 0 80 0 80 25 l0 25 -260 0 -260 0 0 -25z"/>
</g>
</svg>
